<svg xmlns="http://www.w3.org/2000/svg" width="195" height="205" viewBox="0 0 195 205"><g transform="translate(-142 -163)"><path d="M46.5,0A46.5,46.5,0,1,1,0,46.5,46.5,46.5,0,0,1,46.5,0Z" transform="translate(142 257)" fill="#efb53f"/><path d="M70.761,171.364h30v-23h-30Z" transform="translate(164.238 196.636)" fill="#111b2e" fill-rule="evenodd"/><path d="M0,0H14V44H0Z" transform="translate(243 250)" fill="#111b2e"/><g transform="translate(259.9 -80.926) rotate(45)"><path d="M0,0H14V50H0Z" transform="translate(220 191)" fill="#111b2e"/><path d="M0,0H14V50H0Z" transform="translate(220 241)" fill="none"/></g><path d="M7,0A7,7,0,1,1,0,7,7,7,0,0,1,7,0Z" transform="translate(243 243)" fill="#111b2e"/><path d="M87,23C51.159,23,23,51.159,23,87s28.159,64,64,64,64-28.159,64-64S122.841,23,87,23M87,0A87,87,0,1,1,0,87,87,87,0,0,1,87,0Z" transform="translate(163 163)" fill="#111b2e"/></g></svg>
